<?xml version="1.0" encoding="iso-8859-1"?>
<!-- Generator: Adobe Illustrator 19.1.0, SVG Export Plug-In . SVG Version: 6.00 Build 0)  -->
<svg version="1.1" id="Capa_1" xmlns="http://www.w3.org/2000/svg" xmlns:xlink="http://www.w3.org/1999/xlink" x="0px" y="0px"
	 viewBox="0 0 63 63" style="enable-background:new 0 0 63 63;" xml:space="preserve">
<g>
	<g id="group-62svg">
		<path fill="#E5E5E5" id="path-1_57_" d="M31.5,63C14.131,63,0,48.869,0,31.5S14.131,0,31.5,0S63,14.131,63,31.5S48.869,63,31.5,63z M31.5,3
			C15.785,3,3,15.785,3,31.5S15.785,60,31.5,60S60,47.215,60,31.5S47.215,3,31.5,3z"/>
		<path fill="#E5E5E5" id="path-2_57_" d="M43.334,38.951c-2.404,0-4.36-1.956-4.36-4.359c0-2.404,1.956-4.36,4.36-4.36
			c2.403,0,4.359,1.956,4.359,4.36C47.693,36.995,45.737,38.951,43.334,38.951z M43.334,33.232c-0.75,0-1.36,0.61-1.36,1.36
			s0.61,1.359,1.36,1.359s1.359-0.609,1.359-1.359S44.084,33.232,43.334,33.232z"/>
		<path fill="#E5E5E5" id="path-3_33_" d="M43.334,44.68c-5.562,0-10.088-4.526-10.088-10.088c0-5.563,4.526-10.088,10.088-10.088
			c5.563,0,10.088,4.525,10.088,10.088C53.422,40.154,48.897,44.68,43.334,44.68z M43.334,27.504c-3.908,0-7.088,3.18-7.088,7.088
			s3.18,7.088,7.088,7.088s7.088-3.18,7.088-7.088S47.242,27.504,43.334,27.504z"/>
		<path fill="#E5E5E5" id="path-4_27_" d="M20.51,38.951c-2.404,0-4.36-1.956-4.36-4.359c0-2.404,1.956-4.36,4.36-4.36
			c2.403,0,4.359,1.956,4.359,4.36C24.869,36.995,22.913,38.951,20.51,38.951z M20.51,33.232c-0.75,0-1.361,0.61-1.361,1.36
			s0.611,1.359,1.361,1.359s1.359-0.609,1.359-1.359S21.26,33.232,20.51,33.232z"/>
		<path fill="#E5E5E5" id="path-5_24_" d="M20.51,44.68c-5.563,0-10.088-4.526-10.088-10.088c0-5.563,4.525-10.088,10.088-10.088
			c5.562,0,10.088,4.525,10.088,10.088C30.598,40.154,26.072,44.68,20.51,44.68z M20.51,27.504c-3.908,0-7.088,3.18-7.088,7.088
			s3.18,7.088,7.088,7.088s7.088-3.18,7.088-7.088S24.418,27.504,20.51,27.504z"/>
		<path fill="#E5E5E5" id="path-6_17_" d="M40.787,35.853c-0.828,0-1.5-0.672-1.5-1.5V23.065L35.88,16.51c-0.226-0.465-0.304-1.014-0.029-1.452
			c0.274-0.439,0.647-0.705,1.165-0.705h4.149c0.417,0,0.816,0.174,1.1,0.479l2.327,2.507c0.563,0.607,0.528,1.557-0.079,2.12
			c-0.608,0.563-1.556,0.528-2.12-0.079l-1.882-2.027h-1.096l2.507,4.709c0.1,0.205,0.365,0.429,0.365,0.657v11.634
			C42.287,35.181,41.615,35.853,40.787,35.853z"/>
		<path fill="#E5E5E5" id="path-7_10_" d="M20.799,32.848c-0.313,0-0.627-0.097-0.896-0.298c-0.664-0.495-0.8-1.436-0.305-2.099l6.338-8.495
			c0.283-0.38,0.728-0.603,1.202-0.603H39.86c0.829,0,1.5,0.672,1.5,1.5c0,0.828-0.671,1.5-1.5,1.5H27.89l-5.888,7.891
			C21.708,32.64,21.256,32.848,20.799,32.848z"/>
		<path fill="#E5E5E5" id="path-8_5_" d="M33.86,35.353h-4c-0.828,0-1.5-0.672-1.5-1.5c0-0.828,0.672-1.5,1.5-1.5h4c0.829,0,1.5,0.672,1.5,1.5
			C35.36,34.681,34.689,35.353,33.86,35.353z"/>
		<path fill="#E5E5E5" id="path-9_3_" d="M27.309,24.91c-0.73,0-1.37-0.533-1.482-1.277l-0.441-2.939c-0.123-0.82,0.441-1.583,1.261-1.707
			c0.815-0.125,1.583,0.441,1.706,1.261l0.441,2.94c0.123,0.819-0.441,1.583-1.261,1.706C27.458,24.905,27.383,24.91,27.309,24.91z"
			/>
		<path fill="#E5E5E5" id="path-10_2_" d="M30.287,18.853c0,0.828-0.671,1.5-1.5,1.5h-5c-0.828,0-1.5-0.672-1.5-1.5l0,0c0-0.828,0.672-1.5,1.5-1.5
			h5C29.616,17.353,30.287,18.025,30.287,18.853L30.287,18.853z"/>
	</g>
</g>
<g>
</g>
<g>
</g>
<g>
</g>
<g>
</g>
<g>
</g>
<g>
</g>
<g>
</g>
<g>
</g>
<g>
</g>
<g>
</g>
<g>
</g>
<g>
</g>
<g>
</g>
<g>
</g>
<g>
</g>
</svg>
